HIERARCHY
ROOT Hips
{
	OFFSET	0.00	0.00	0.00
	CHANNELS 6 Xposition Yposition Zposition Zrotation Xrotation Yrotation
	JOINT LeftUpLeg
	{
		OFFSET	 0.126116	-0.065224	 0.014019
		CHANNELS 3 Zrotation Xrotation Yrotation
		JOINT LeftLeg
		{
			OFFSET	 0.000000	 0.569914	 0.000000
			CHANNELS 3 Zrotation Xrotation Yrotation
			JOINT LeftFoot
			{
				OFFSET	 0.000000	 0.544423	 0.000000
				CHANNELS 3 Zrotation Xrotation Yrotation
				JOINT LeftToeBase
				{
					OFFSET	 0.000000	 0.207117	 0.000000
					CHANNELS 3 Zrotation Xrotation Yrotation
					End Site
					{
						OFFSET	 0.000000	 0.207117	 0.000000
					}
				}
			}
		}
	}
	JOINT RightUpLeg
	{
		OFFSET	-0.124023	-0.065224	 0.008373
		CHANNELS 3 Zrotation Xrotation Yrotation
		JOINT RightLeg
		{
			OFFSET	 0.000000	 0.570047	 0.000000
			CHANNELS 3 Zrotation Xrotation Yrotation
			JOINT RightFoot
			{
				OFFSET	 0.000000	 0.544354	 0.000000
				CHANNELS 3 Zrotation Xrotation Yrotation
				JOINT RightToeBase
				{
					OFFSET	 0.000000	 0.207540	 0.000000
					CHANNELS 3 Zrotation Xrotation Yrotation
					End Site
					{
						OFFSET	 0.000000	 0.207540	 0.000000
					}
				}
			}
		}
	}
	JOINT Spine
	{
		OFFSET	 0.000184	 0.117403	 0.007763
		CHANNELS 3 Zrotation Xrotation Yrotation
		JOINT Spine1
		{
			OFFSET	 0.000000	 0.137269	 0.000000
			CHANNELS 3 Zrotation Xrotation Yrotation
			JOINT Spine2
			{
				OFFSET	 0.000000	 0.156879	 0.000000
				CHANNELS 3 Zrotation Xrotation Yrotation
				JOINT LeftShoulder
				{
					OFFSET	 0.080501	 0.160143	 0.002496
					CHANNELS 3 Zrotation Xrotation Yrotation
					JOINT LeftArm
					{
						OFFSET	 0.000000	 0.164363	 0.000000
						CHANNELS 3 Zrotation Xrotation Yrotation
						JOINT LeftForeArm
						{
							OFFSET	 0.000000	 0.364576	 0.000000
							CHANNELS 3 Zrotation Xrotation Yrotation
							JOINT LeftHand
							{
								OFFSET	 0.000000	 0.360812	 0.000000
								CHANNELS 3 Zrotation Xrotation Yrotation
								JOINT LeftHandIndex1
								{
									OFFSET	 0.000000	 0.086006	 0.000000
									CHANNELS 3 Zrotation Xrotation Yrotation
									JOINT LeftHandIndex2
									{
										OFFSET	 0.000000	 0.047237	 0.000000
										CHANNELS 3 Zrotation Xrotation Yrotation
										JOINT LeftHandIndex3
										{
											OFFSET	-0.004284	 0.038165	 0.000551
											CHANNELS 3 Zrotation Xrotation Yrotation
											End Site
											{
												OFFSET	-0.004284	 0.038165	 0.000551
											}
										}
									}
								}
							}
						}
					}
				}
				JOINT Neck
				{
					OFFSET	 0.000000	 0.176489	 0.000000
					CHANNELS 3 Zrotation Xrotation Yrotation
					JOINT Head
					{
						OFFSET	 0.000000	 0.077941	 0.001747
						CHANNELS 3 Zrotation Xrotation Yrotation
						End Site
						{
							OFFSET	 0.000000	 0.077941	 0.001747
						}
					}
				}
				JOINT RightShoulder
				{
					OFFSET	-0.080363	 0.159706	-0.000306
					CHANNELS 3 Zrotation Xrotation Yrotation
					JOINT RightArm
					{
						OFFSET	 0.000000	 0.164196	 0.000000
						CHANNELS 3 Zrotation Xrotation Yrotation
						JOINT RightForeArm
						{
							OFFSET	 0.000000	 0.365611	 0.000000
							CHANNELS 3 Zrotation Xrotation Yrotation
							JOINT RightHand
							{
								OFFSET	 0.000000	 0.360648	 0.000000
								CHANNELS 3 Zrotation Xrotation Yrotation
								JOINT RightHandIndex1
								{
									OFFSET	 0.000000	 0.069977	 0.000000
									CHANNELS 3 Zrotation Xrotation Yrotation
									JOINT RightHandIndex2
									{
										OFFSET	 0.000000	 0.052305	 0.000000
										CHANNELS 3 Zrotation Xrotation Yrotation
										JOINT RightHandIndex3
										{
											OFFSET	 0.009002	 0.042196	 0.000782
											CHANNELS 3 Zrotation Xrotation Yrotation
											End Site
											{
												OFFSET	 0.009002	 0.042196	 0.000782
											}
										}
									}
								}
							}
						}
					}
				}
			}
		}
	}
}
MOTION
Frames:    9
Frame Time: 0.03333334
 0.001808	 1.267911	-0.097753	-0.039223	 3.207434	 178.815100	-177.904800	 2.241607	-16.824120	 3.131161	-15.465310	 2.891485	-6.006413	 70.572840	 7.120742	 1.331492	 28.938720	-2.729976	 177.590000	-1.686784	 20.240950	-4.288043	-13.856730	-6.242549	 3.962773	 73.535860	-2.182265	-1.305358	 28.580640	 2.605077	-1.224513	 4.228472	 9.007125	-1.356062	 0.925413	 3.766201	-1.129494	 2.157043	-15.546160	-113.447000	 5.127286	 93.000320	 30.568370	 50.082160	 19.069940	 4.919880	-0.254289	-0.072777	 2.057639	 5.304523	 14.663920	-6.580301	 5.266122	 0.000000	 0.000000	 0.000000	 0.000000	 0.000000	 0.000000	 0.000000	 3.828867	-0.641666	-0.249796	 3.209820	 0.745415	-2.269481	 114.205900	-4.429935	-88.481360	-69.429240	-3.187836	 46.382500	-89.959530	-2.253050	-2.193064	 4.112077	-14.162880	-60.919560	-0.359781	 10.582450	 0.744568	 11.977790	 9.317317	-2.096066	-8.359142	 3.150340	 0.104224
 0.001597	 1.268011	-0.094001	 0.023060	 3.155336	 178.809000	-177.770600	 2.367862	-17.340920	 3.145483	-15.532670	 2.894441	-5.995697	 70.536450	 7.113786	 1.331492	 28.938720	-2.729976	 177.580200	-1.375783	 20.753140	-4.329813	-13.986220	-6.253874	 3.960989	 73.393930	-2.176704	-1.305359	 28.580640	 2.604941	-1.143205	 4.434071	 8.905797	-1.352624	 0.057772	 3.735151	-1.061387	 3.318537	-15.375030	-113.447000	 5.126995	 93.000260	 31.079690	 49.661330	 18.729060	 4.908983	-0.253537	-0.070729	 1.099561	 6.028348	 14.370380	-6.580301	 5.266122	 0.000000	 0.000000	 0.000000	 0.000000	 0.000000	 0.000000	 0.000000	 3.829337	-0.642744	-0.249942	 3.211951	 0.899963	-2.249095	 114.205800	-4.429379	-88.481770	-69.203010	-3.419722	 46.479640	-90.235020	-2.252928	-2.206005	 5.212402	-13.885740	-59.929780	-0.359781	 10.582450	 0.744568	 11.977790	 9.317314	-2.096066	-8.359142	 3.150339	 0.104224
 0.001405	 1.268120	-0.090250	 0.083941	 3.104706	 178.799900	-177.629300	 2.547491	-17.862850	 3.184382	-15.715070	 2.902738	-6.016125	 70.559590	 7.129997	 1.331492	 28.938720	-2.729976	 177.568900	-1.074237	 21.264920	-4.366812	-14.100740	-6.266491	 3.944522	 73.245950	-2.160444	-1.305361	 28.580650	 2.604560	-1.069931	 4.653815	 8.768426	-1.358024	-0.831263	 3.660461	-1.000261	 4.467998	-15.055530	-113.447000	 5.126186	 93.000100	 31.573600	 49.240990	 18.394250	 4.903065	-0.252911	-0.064917	 0.080904	 6.689101	 13.761120	-6.580301	 5.266122	 0.000000	 0.000000	 0.000000	 0.000000	 0.000000	 0.000000	 0.000000	 3.830651	-0.645759	-0.250351	 3.217216	 1.065951	-2.192705	 114.205600	-4.427751	-88.482950	-68.897150	-3.719356	 46.507040	-90.448600	-2.252633	-2.220243	 6.170042	-13.389690	-58.528040	-0.359781	 10.582440	 0.744568	 11.977790	 9.317307	-2.096064	-8.359142	 3.150334	 0.104224
 0.001255	 1.268224	-0.086920	 0.136782	 3.060535	 178.788400	-177.497200	 2.765672	-18.312170	 3.245549	-16.001280	 2.915942	-6.014951	 70.646040	 7.109826	 1.331492	 28.938720	-2.729976	 177.555700	-0.813706	 21.737000	-4.395848	-14.190560	-6.279348	 3.972456	 73.109380	-2.196452	-1.305363	 28.580660	 2.603954	-1.015479	 4.842865	 8.627000	-1.362179	-1.608796	 3.553749	-0.958868	 5.465520	-14.635430	-113.447100	 5.124897	 92.999790	 32.003210	 48.867040	 18.098540	 4.901641	-0.252329	-0.055637	-0.879812	 7.232972	 12.930110	-6.580301	 5.266122	 0.000000	 0.000000	 0.000000	 0.000000	 0.000000	 0.000000	 0.000000	 3.832741	-0.650556	-0.251003	 3.225209	 1.224029	-2.110274	 114.205200	-4.425223	-88.484790	-68.541120	-4.060287	 46.463080	-90.566430	-2.252225	-2.234215	 6.853476	-12.712400	-56.899060	-0.359781	 10.582420	 0.744568	 11.977790	 9.317294	-2.096062	-8.359142	 3.150328	 0.104225
 0.001116	 1.268350	-0.083158	 0.194636	 3.012331	 178.771500	-177.344900	 2.993314	-18.843020	 3.308624	-16.295630	 2.927351	-6.059269	 70.727390	 7.139752	 1.331492	 28.938720	-2.729976	 177.541400	-0.527381	 22.255060	-4.424826	-14.280130	-6.296432	 3.939008	 72.952220	-2.170849	-1.305367	 28.580690	 2.602909	-0.969633	 5.048550	 8.450358	-1.363925	-2.469877	 3.380743	-0.931520	 6.562012	-13.987350	-113.447100	 5.122684	 92.999310	 32.481020	 48.442730	 17.758390	 4.907844	-0.251730	-0.039515	-2.035949	 7.807740	 11.629150	-6.580301	 5.266122	 0.000000	 0.000000	 0.000000	 0.000000	 0.000000	 0.000000	 0.000000	 3.836351	-0.658836	-0.252127	 3.238572	 1.415325	-1.976626	 114.204600	-4.420832	-88.487950	-68.025080	-4.548038	 46.330580	-90.589180	-2.251512	-2.251156	 7.344250	-11.629520	-54.576330	-0.359780	 10.582400	 0.744568	 11.977790	 9.317272	-2.096057	-8.359142	 3.150316	 0.104226
 0.001018	 1.268481	-0.079463	 0.248924	 2.966588	 178.750000	-177.194900	 3.196737	-19.373910	 3.364065	-16.553520	 2.934575	-6.106771	 70.791100	 7.174872	 1.331492	 28.938720	-2.729976	 177.525900	-0.253109	 22.763110	-4.450132	-14.358250	-6.316617	 3.884260	 72.796000	-2.125938	-1.305373	 28.580720	 2.601451	-0.944490	 5.238952	 8.259186	-1.361755	-3.292175	 3.147056	-0.929746	 7.599845	-13.143400	-113.447200	 5.119591	 92.998640	 32.947640	 48.024450	 17.409270	 4.919388	-0.251082	-0.017066	-3.251857	 8.340322	 9.924232	-6.580301	 5.266122	 0.000000	 0.000000	 0.000000	 0.000000	 0.000000	 0.000000	 0.000000	 3.841380	-0.670374	-0.253692	 3.256670	 1.616802	-1.797210	 114.203700	-4.414686	-88.492390	-67.378180	-5.149914	 46.111240	-90.456310	-2.250636	-2.268393	 7.389756	-10.197760	-51.730460	-0.359779	 10.582370	 0.744568	 11.977790	 9.317242	-2.096051	-8.359141	 3.150300	 0.104227
 0.000968	 1.268615	-0.075812	 0.299130	 2.923711	 178.722600	-177.047500	 3.374979	-19.908550	 3.411738	-16.774730	 2.937148	-6.156511	 70.836950	 7.213499	 1.331492	 28.938720	-2.729976	 177.508300	 0.012270	 23.264060	-4.473177	-14.429350	-6.340652	 3.811552	 72.642020	-2.064822	-1.305380	 28.580760	 2.599539	-0.943493	 5.412553	 8.049419	-1.354326	-4.070763	 2.842728	-0.959389	 8.569888	-12.073520	-113.447200	 5.115536	 92.997750	 33.404780	 47.610770	 17.042310	 4.938995	-0.250483	 0.012396	-4.537870	 8.842258	 7.762311	-6.580301	 5.266122	 0.000000	 0.000000	 0.000000	 0.000000	 0.000000	 0.000000	 0.000000	 3.847976	-0.685510	-0.255744	 3.279763	 1.827895	-1.565202	 114.202500	-4.406658	-88.498210	-66.578890	-5.878621	 45.807000	-90.117130	-2.249433	-2.284387	 6.795764	-8.412875	-48.294360	-0.359778	 10.582330	 0.744568	 11.977790	 9.317201	-2.096043	-8.359140	 3.150279	 0.104229
 0.000972	 1.268738	-0.072538	 0.340474	 2.887669	 178.693100	-176.916400	 3.514238	-20.397580	 3.448171	-16.943410	 2.935232	-6.207059	 70.862670	 7.254928	 1.331492	 28.938720	-2.729976	 177.490000	 0.246666	 23.712480	-4.493354	-14.491550	-6.366378	 3.727455	 72.506840	-1.991887	-1.305388	 28.580810	 2.597382	-0.966161	 5.551564	 7.837139	-1.342289	-4.727170	 2.495214	-1.018766	 9.370790	-10.882300	-113.447300	 5.110972	 92.996740	 33.807490	 47.242600	 16.692750	 4.963478	-0.249924	 0.045641	-5.762536	 9.275770	 5.357544	-6.580301	 5.266122	 0.000000	 0.000000	 0.000000	 0.000000	 0.000000	 0.000000	 0.000000	 3.855416	-0.702584	-0.258056	 3.305130	 2.024615	-1.303058	 114.201200	-4.397583	-88.504780	-65.708070	-6.655699	 45.457760	-89.573050	-2.247962	-2.296108	 5.486628	-6.529755	-44.613430	-0.359776	 10.582290	 0.744568	 11.977790	 9.317157	-2.096034	-8.359139	 3.150255	 0.104232
 0.001034	 1.268860	-0.069222	 0.377807	 2.853694	 178.657900	-176.785400	 3.634305	-20.904000	 3.478847	-17.085290	 2.928784	-6.266002	 70.873860	 7.304886	 1.331492	 28.938720	-2.729976	 177.468200	 0.482051	 24.166780	-4.514353	-14.556300	-6.397155	 3.623623	 72.374860	-1.899636	-1.305399	 28.580870	 2.594726	-1.015081	 5.667821	 7.594131	-1.324471	-5.330709	 2.059151	-1.116451	 10.083790	-9.419101	-113.447400	 5.105340	 92.995490	 34.198390	 46.877370	 16.315400	 4.997169	-0.249356	 0.086604	-7.069744	 9.700317	 2.415619	-6.580301	 5.266122	 0.000000	 0.000000	 0.000000	 0.000000	 0.000000	 0.000000	 0.000000	 3.864580	-0.723616	-0.260902	 3.335578	 2.226005	-0.977011	 114.199600	-4.386420	-88.512840	-64.660540	-7.570454	 45.025360	-88.711310	-2.245705	-2.303071	 3.129390	-4.435966	-40.231670	-0.359774	 10.582230	 0.744568	 11.977790	 9.317101	-2.096022	-8.359138	 3.150225	 0.104235
